<svg fill="none" height="512" viewBox="0 0 60 60" width="512" xmlns="http://www.w3.org/2000/svg" xmlns:xlink="http://www.w3.org/1999/xlink"><linearGradient id="paint0_linear_203_10034" gradientUnits="userSpaceOnUse" x1="30" x2="30" y1="4" y2="57"><stop offset="0" stop-color="#ce9ffc"/><stop offset="1" stop-color="#7367f0"/></linearGradient><g fill="url(#paint0_linear_203_10034)"><path d="m51 15c-12.467-.005-18.034-7.609-19.551-10.17-.304-.514-.851-.83-1.449-.83s-1.144.316-1.449.83c-1.517 2.561-7.084 10.165-19.551 10.17-1.104 0-2 .896-2 2v10c0 19.096 16.575 27.645 20.951 29.568.649.285 1.341.432 2.049.432s1.4-.147 2.049-.432c4.376-1.923 20.951-10.472 20.951-29.568v-10c0-1.104-.896-2-2-2zm-8.172 18.6c-2.974 4.716-6.828 7.4-12.828 7.4s-9.843-2.663-12.815-7.359c-.246-.389-.246-.893 0-1.281 2.972-4.697 6.815-7.36 12.815-7.36s9.854 2.684 12.828 7.4c.23.364.23.836 0 1.2z"/><path d="m30 37c2.2091 0 4-1.7909 4-4s-1.7909-4-4-4-4 1.7909-4 4 1.7909 4 4 4z"/></g></svg>